<?xml version="1.0" standalone="no"?>
<!DOCTYPE svg PUBLIC "-//W3C//DTD SVG 20010904//EN"
 "http://www.w3.org/TR/2001/REC-SVG-20010904/DTD/svg10.dtd">
<svg version="1.0" xmlns="http://www.w3.org/2000/svg"
 width="540.000000pt" height="653.000000pt" viewBox="0 0 540.000000 653.000000"
 preserveAspectRatio="xMidYMid meet">

<g transform="translate(0.000000,653.000000) scale(0.100000,-0.100000)"
fill="#000000" stroke="none">
<path d="M2960 4993 c-8 -3 -26 -17 -40 -30 -14 -14 -49 -43 -77 -65 -29 -22
-53 -44 -53 -49 0 -5 -6 -9 -14 -9 -8 0 -24 -11 -37 -25 -13 -13 -30 -25 -36
-25 -7 0 -20 -11 -29 -25 -9 -14 -22 -25 -29 -25 -7 0 -27 -13 -45 -30 -31
-29 -33 -29 -61 -14 -17 8 -35 27 -41 42 -15 33 -63 81 -95 93 -13 5 -65 9
-115 9 -75 0 -94 -3 -115 -20 -14 -11 -31 -20 -37 -20 -7 0 -27 -16 -46 -35
-19 -19 -37 -35 -41 -35 -3 0 -9 19 -13 43 -7 43 -42 143 -59 165 -5 6 -24 12
-42 12 -48 0 -65 -49 -65 -185 0 -102 -1 -105 -22 -106 -13 0 -58 -2 -100 -4
-43 -1 -75 1 -72 6 2 5 -2 19 -9 31 -8 13 -20 40 -27 61 -6 20 -16 37 -21 37
-5 0 -9 7 -9 15 0 8 -4 15 -10 15 -5 0 -10 7 -10 15 0 15 -29 55 -41 55 -11 0
-81 -179 -85 -216 -1 -19 -6 -39 -9 -44 -3 -5 -10 -37 -15 -72 -9 -65 -50
-211 -61 -216 -3 -1 -45 -31 -92 -65 -48 -34 -126 -89 -174 -122 -102 -70
-254 -217 -336 -326 -139 -184 -204 -427 -144 -534 27 -48 108 -105 148 -105
16 0 29 -5 29 -11 0 -15 -64 -39 -105 -39 -30 0 -39 6 -61 40 -20 30 -30 38
-39 30 -18 -15 -38 -132 -30 -172 17 -76 81 -158 126 -158 10 0 19 -2 19 -5 0
-3 -18 -28 -40 -56 -22 -28 -63 -97 -90 -153 -59 -117 -78 -202 -87 -381 -8
-157 16 -270 88 -412 27 -54 49 -103 49 -109 0 -28 100 -97 178 -123 98 -33
211 -22 264 26 10 9 20 14 21 12 2 -2 19 -49 37 -104 18 -55 44 -131 57 -170
13 -38 33 -99 45 -135 11 -36 31 -88 44 -115 13 -28 24 -56 24 -64 0 -7 11
-45 24 -84 51 -151 91 -364 101 -537 7 -135 31 -198 97 -254 127 -109 404
-161 768 -145 150 6 256 26 367 70 15 6 48 17 73 24 102 30 152 56 262 138
107 78 120 92 157 159 22 40 50 108 62 153 19 69 21 95 15 192 -3 61 -9 118
-12 127 -9 23 33 21 104 -5 31 -11 84 -30 117 -41 99 -33 340 -144 598 -274
94 -47 115 -54 167 -54 71 0 159 30 204 70 30 27 31 31 28 97 -2 37 -4 84 -4
103 -1 19 4 78 11 130 18 126 -1 240 -56 350 -33 66 -46 80 -104 120 -91 61
-146 110 -231 203 l-71 79 28 57 c36 72 141 391 165 501 10 47 24 135 31 195
10 94 17 118 45 165 18 30 38 75 44 99 19 73 17 179 -5 250 -18 59 -24 67 -78
105 -33 23 -95 70 -140 105 -44 34 -96 72 -116 83 -20 11 -42 25 -48 30 -7 6
-13 8 -13 5 0 -11 210 -185 269 -223 78 -50 86 -71 85 -209 0 -99 -3 -119 -32
-194 -21 -55 -32 -103 -32 -135 0 -99 -55 -323 -124 -511 -37 -99 -71 -194
-75 -212 -11 -42 -66 -139 -135 -238 -31 -44 -81 -118 -113 -165 -31 -47 -59
-87 -63 -90 -3 -3 -23 -33 -44 -67 -29 -47 -36 -65 -28 -80 30 -59 18 -126
-31 -171 -20 -19 -33 -23 -64 -18 -21 3 -40 5 -42 6 -2 0 -30 28 -61 62 l-58
62 -113 -27 c-278 -66 -734 -60 -992 12 -200 57 -377 143 -465 227 -49 48 -50
48 -71 35 -11 -7 -1 -21 44 -63 69 -64 92 -80 170 -120 l60 -31 -50 -15 c-28
-9 -82 -16 -122 -16 -40 0 -69 -3 -65 -7 34 -30 164 -33 238 -6 40 15 43 14
116 -17 242 -106 594 -159 807 -122 52 9 127 19 167 23 l73 6 12 -29 c6 -16
13 -81 16 -144 6 -140 -9 -215 -67 -329 -50 -100 -84 -128 -260 -219 -103 -53
-165 -77 -256 -100 -67 -17 -134 -36 -150 -42 -101 -39 -486 -30 -670 14 -115
28 -142 39 -201 78 -23 15 -46 28 -51 28 -5 0 -12 74 -14 168 -4 131 -11 192
-32 283 -43 188 -94 357 -142 469 -85 197 -175 462 -210 620 -19 85 -44 184
-55 220 -29 95 -60 415 -58 600 3 241 15 351 58 540 52 232 71 297 120 418 22
56 50 129 61 163 27 78 167 359 180 359 5 0 15 -10 21 -22 15 -30 60 -78 72
-78 6 0 2 9 -7 19 -47 52 -101 345 -67 365 7 5 11 -3 11 -21 1 -58 93 -232
124 -233 6 0 21 10 34 23 l24 22 -7 -62 c-8 -71 -1 -80 21 -27 14 33 17 35 47
28 76 -17 218 3 261 37 16 13 33 18 48 14 18 -5 41 9 105 60 45 36 84 65 87
65 3 0 6 -25 6 -55 0 -70 18 -114 61 -148 l33 -26 -29 -11 c-67 -25 -121 -17
-161 25 -36 38 -44 42 -44 21 0 -23 67 -75 107 -82 21 -4 57 -2 84 5 55 14 63
11 85 -32 34 -67 51 -77 127 -77 l70 0 -7 -83 -7 -84 65 -95 c88 -129 139
-173 272 -233 144 -65 148 -68 216 -153 55 -69 58 -76 58 -129 0 -64 -23 -160
-51 -215 -23 -45 -82 -106 -122 -127 -26 -14 -29 -13 -94 50 -41 38 -67 71
-66 82 2 13 -5 17 -31 17 -45 0 -96 -19 -96 -36 0 -18 40 -34 84 -34 25 0 42
-10 81 -51 l50 -51 -47 5 c-69 7 -118 36 -156 93 -52 79 -87 109 -144 127 -29
9 -90 28 -136 43 -75 23 -95 26 -208 23 -96 -3 -123 -1 -119 9 6 17 3 16 -78
-19 -47 -20 -95 -33 -139 -36 -60 -5 -73 -2 -135 26 -79 37 -109 63 -168 146
-52 73 -75 146 -75 239 0 85 12 131 42 163 18 19 19 23 5 23 -9 0 -29 -11 -44
-24 l-28 -24 0 -144 0 -143 50 -98 c90 -178 146 -222 280 -222 60 0 95 6 140
24 40 15 85 24 136 26 l76 3 5 -97 c4 -74 13 -115 37 -181 33 -90 110 -233
170 -315 94 -131 292 -376 349 -433 65 -66 66 -85 1 -59 -18 8 -55 18 -82 21
-43 7 -50 12 -80 59 -48 74 -204 231 -256 257 -87 44 -139 54 -276 53 -145 -1
-244 -19 -340 -62 -124 -56 -299 -271 -222 -271 7 0 20 12 29 28 27 45 129
139 193 177 164 98 392 110 563 30 89 -42 186 -131 248 -227 48 -75 74 -91
167 -102 31 -4 59 -12 63 -17 10 -16 -3 -50 -41 -114 -37 -60 -37 -60 -19 -93
19 -35 71 -68 161 -102 69 -26 140 -22 246 14 57 19 67 20 61 7 -21 -50 -10
-191 15 -191 3 0 12 42 18 94 18 152 37 180 226 325 52 40 106 84 118 97 12
13 27 24 33 24 22 0 153 137 199 207 83 127 153 280 197 427 22 77 37 143 33
147 -4 4 -17 9 -28 11 -47 8 -65 129 -31 201 26 52 11 67 -65 67 -63 0 -150
-29 -185 -61 -11 -10 -23 -19 -27 -19 -14 0 -6 168 12 258 22 106 72 222 95
222 9 0 16 4 16 9 0 5 9 12 19 16 15 4 30 -4 56 -32 32 -33 34 -34 17 -8 -10
17 -25 47 -31 68 -7 20 -16 37 -19 37 -4 0 -22 -9 -41 -21 -19 -12 -43 -18
-55 -15 -41 10 -232 143 -268 186 -34 41 -38 43 -60 31 -57 -30 -112 -160
-124 -293 -14 -162 63 -332 190 -423 26 -19 62 -37 79 -41 18 -3 44 -20 58
-37 l26 -31 45 37 c50 41 114 71 171 81 42 8 42 7 22 -60 -18 -59 -19 -98 -4
-127 17 -33 61 -77 77 -77 8 0 11 -7 8 -17 -3 -10 -8 -31 -12 -48 -17 -72 -77
-208 -138 -310 -74 -126 -128 -205 -138 -205 -4 0 -18 15 -30 33 -30 45 -142
137 -181 148 -17 5 -66 9 -108 9 -68 0 -81 3 -120 30 -24 16 -48 30 -54 30 -5
0 -23 -23 -40 -52 -37 -63 -89 -89 -190 -96 -38 -2 -76 -9 -83 -15 -8 -6 -27
-3 -61 12 -54 23 -130 28 -163 10 -19 -10 -26 -7 -60 32 -93 106 -190 269
-242 404 -15 39 -36 92 -47 120 -12 30 -22 87 -26 142 l-6 93 77 0 c65 0 85
-4 136 -30 33 -16 66 -30 73 -30 29 0 97 -58 135 -115 70 -103 63 -100 210
-114 93 -9 136 -9 150 -2 33 17 128 132 155 188 16 30 35 98 47 163 21 122 19
142 -31 211 -23 33 -159 126 -198 136 -14 3 -71 28 -126 55 -101 49 -164 100
-209 168 -52 79 -60 96 -57 123 1 15 -2 27 -8 27 -6 0 -6 11 0 32 15 54 11 96
-10 108 -11 5 -42 10 -70 10 -68 0 -93 14 -121 65 l-24 44 62 65 c66 69 116
158 130 236 6 33 30 74 86 150 121 165 179 236 208 256 15 10 25 20 24 22 -2
1 8 15 23 30 80 84 127 153 118 176 -7 17 -12 18 -37 9z m-1003 -151 c23 -60
43 -150 38 -164 -3 -8 -14 -19 -25 -26 -24 -15 -24 -14 -40 72 -16 95 -12 181
9 161 2 -3 11 -22 18 -43z m-397 -17 c17 10 62 -97 86 -207 23 -101 24 -117
15 -226 -14 -158 -19 -176 -52 -208 l-29 -27 -14 34 c-8 19 -21 50 -29 70 -8
21 -23 83 -33 138 -15 87 -16 115 -6 199 6 53 20 123 31 155 11 32 19 63 17
70 -1 7 -1 9 1 4 3 -4 9 -5 13 -2z m1260 -19 c0 -3 -4 -8 -10 -11 -5 -3 -10
-1 -10 4 0 6 5 11 10 11 6 0 10 -2 10 -4z m-405 -30 c29 -19 42 -47 56 -121 9
-46 8 -51 -13 -67 -30 -23 -33 -22 -45 4 -9 21 -10 21 -35 -16 l-26 -38 -16
50 c-26 77 -99 131 -178 132 l-33 1 33 28 c18 16 48 33 65 39 46 16 161 8 192
-12z m358 -19 c-11 -19 -82 -97 -88 -97 -3 0 -5 12 -5 28 0 20 12 36 47 65 44
36 66 37 46 4z m-534 -81 c81 -43 81 -167 0 -229 -39 -29 -173 -102 -206 -112
-22 -6 -23 -4 -23 60 0 70 -20 125 -45 125 -11 0 -12 -5 -5 -26 15 -39 11
-125 -8 -163 -20 -39 -56 -55 -160 -69 -37 -5 -67 -9 -68 -8 0 0 1 51 4 111
l4 110 73 33 c40 17 89 32 109 32 38 0 48 13 19 24 -14 6 -8 12 27 33 25 15
65 42 89 60 38 29 52 33 103 33 32 0 72 -7 87 -14z m416 -27 c5 -15 -3 -36
-29 -72 -74 -105 -76 -107 -76 -40 0 42 5 52 42 90 23 24 45 43 49 43 4 0 11
-9 14 -21z m-146 -131 c-1 -7 1 -29 5 -48 6 -31 2 -46 -34 -107 -67 -117 -77
-116 -87 12 l-5 72 48 41 c49 42 77 53 73 30z m-157 -161 c3 -33 13 -65 25
-83 l21 -30 -44 -69 c-24 -39 -45 -74 -48 -80 -2 -7 -9 -7 -20 0 -26 15 -56
111 -55 175 0 54 1 56 52 97 29 23 55 42 58 42 4 1 9 -23 11 -52z m-962 -71
c0 -13 3 -36 6 -52 5 -28 0 -33 -118 -111 -217 -144 -309 -236 -382 -380 -30
-61 -56 -160 -56 -218 0 -102 100 -163 191 -116 23 12 43 20 46 18 2 -3 -14
-20 -37 -40 -44 -38 -75 -47 -153 -47 -47 0 -53 3 -93 46 -29 31 -45 58 -49
85 -12 70 -25 41 -25 -55 0 -101 9 -138 42 -173 21 -23 21 -23 2 -23 -11 0
-39 16 -62 35 -49 43 -60 88 -43 191 13 79 78 257 112 306 52 75 141 178 215
248 73 70 380 309 397 310 4 0 7 -11 7 -24z m20 -123 c0 -4 -9 -16 -19 -27
-21 -23 -110 -184 -155 -281 -44 -93 -81 -192 -111 -290 -15 -50 -32 -95 -39
-101 -6 -7 -41 -19 -79 -28 -114 -28 -145 5 -127 136 12 85 32 135 87 221 74
116 142 181 337 319 75 53 106 68 106 51z m-766 -1062 c3 -22 9 -48 12 -58 4
-14 1 -13 -15 6 -14 15 -21 37 -21 63 0 49 15 42 24 -11z m362 7 c-3 -18 -11
-94 -17 -168 l-12 -135 -67 -71 c-180 -190 -258 -355 -248 -525 5 -92 37 -155
100 -197 60 -39 147 -38 207 1 24 16 44 27 46 25 1 -2 5 -16 9 -33 5 -26 2
-33 -28 -53 -68 -46 -169 -38 -252 19 -55 38 -104 134 -135 266 l-23 98 -10
-54 c-15 -85 4 -214 43 -291 40 -82 120 -190 140 -190 8 0 28 -12 44 -27 24
-24 36 -28 85 -27 63 0 107 19 146 61 27 28 25 29 41 -22 5 -19 -29 -52 -74
-71 -53 -22 -148 -18 -206 10 -58 28 -149 114 -177 170 -28 55 -57 150 -69
227 -12 76 2 260 26 367 24 101 106 265 203 405 18 27 32 51 29 53 -2 2 -24 0
-49 -4 -78 -15 -109 -3 -127 49 l-10 29 39 -20 c22 -11 51 -20 64 -20 57 0
201 75 255 134 31 33 34 33 27 -6z m-34 -514 c-3 -110 2 -215 13 -310 9 -79
14 -148 11 -153 -3 -5 -25 -13 -49 -19 -61 -16 -109 0 -162 52 -37 37 -44 52
-54 108 -6 35 -11 78 -11 94 0 58 78 191 194 331 28 34 53 62 56 62 3 1 3 -74
2 -165z m2249 -311 c24 -12 58 -17 119 -16 l85 1 77 -79 c92 -94 102 -118 62
-153 -16 -13 -49 -43 -74 -65 -30 -28 -53 -41 -72 -41 -20 0 -32 -7 -40 -24
l-11 -25 -56 48 c-164 139 -326 199 -425 157 l-39 -16 7 32 c9 47 24 57 102
73 95 20 137 41 174 86 35 44 43 46 91 22z m-456 -116 c37 -21 40 -26 37 -60
-2 -21 2 -54 7 -74 9 -32 8 -41 -8 -56 -18 -18 -20 -18 -66 31 -117 127 -143
161 -124 173 28 17 112 10 154 -14z m-2000 -106 c25 -28 26 -32 8 -22 -21 11
-43 40 -43 57 0 4 1 5 3 3 1 -2 16 -19 32 -38z m3274 -457 c29 -36 95 -97 145
-135 100 -75 147 -126 176 -192 26 -61 44 -238 35 -349 -4 -51 -7 -121 -6
-156 1 -34 -3 -71 -9 -82 -18 -34 -130 -80 -197 -80 -42 0 -109 26 -153 59
-36 28 -174 111 -184 111 -3 0 -55 23 -115 51 -61 27 -166 66 -233 85 -68 20
-150 45 -183 56 -32 11 -72 18 -87 16 -22 -4 -28 -1 -28 14 0 14 8 18 34 18
19 0 57 5 85 12 49 11 50 11 75 -19 35 -41 84 -63 145 -64 92 -3 160 76 147
168 -5 36 -1 50 24 90 16 26 31 59 33 72 4 27 45 74 57 66 12 -7 38 -134 45
-220 7 -71 25 -115 49 -115 29 0 -4 230 -44 312 -17 33 -30 63 -30 67 0 4 17
29 38 57 21 28 55 90 77 137 21 48 41 87 44 86 3 0 30 -30 60 -65z"/>
<path d="M1832 4003 c-33 -16 -132 -118 -132 -136 0 -5 28 17 63 49 35 33 75
65 90 73 27 14 29 13 80 -36 54 -52 110 -79 143 -67 23 8 64 44 64 56 0 4 -31
8 -69 8 -62 0 -74 3 -121 35 -59 39 -71 41 -118 18z"/>
<path d="M1815 3911 c-39 -23 -115 -109 -115 -129 0 -11 -9 -13 -42 -9 l-43 6
34 -31 c33 -29 37 -30 98 -24 65 7 82 -6 23 -17 -73 -15 -16 -23 154 -23 102
1 182 4 178 8 -11 10 -121 28 -174 28 -28 0 -47 4 -43 9 3 5 1 12 -5 16 -16
10 -12 28 5 21 9 -3 18 1 21 9 8 19 63 19 88 0 36 -28 41 -14 6 15 -44 38 -94
39 -197 5 -42 -14 -78 -24 -80 -21 -8 8 35 63 80 101 37 33 46 36 82 31 37 -6
39 -5 21 9 -26 20 -55 19 -91 -4z"/>
<path d="M2749 3101 c-20 -16 -22 -22 -12 -43 8 -18 22 -27 50 -31 25 -4 49
-18 68 -37 35 -37 55 -38 55 -5 0 97 -98 167 -161 116z"/>
</g>
</svg>
